<?xml version="1.0" standalone="no"?>
<!DOCTYPE svg PUBLIC "-//W3C//DTD SVG 20010904//EN"
 "http://www.w3.org/TR/2001/REC-SVG-20010904/DTD/svg10.dtd">
<svg version="1.0" xmlns="http://www.w3.org/2000/svg"
 width="400.000000pt" height="400.000000pt" viewBox="0 0 400.000000 400.000000"
 preserveAspectRatio="xMidYMid meet">
<metadata>
Created by potrace 1.11, written by Peter Selinger 2001-2013
</metadata>
<g transform="translate(0.000000,400.000000) scale(0.100000,-0.100000)"
fill="#000000" stroke="none">
<path d="M0 2000 l0 -2000 2000 0 2000 0 0 2000 0 2000 -2000 0 -2000 0 0
-2000z m936 889 c4 -8 9 -8 17 0 7 7 112 11 325 11 l314 0 -7 -67 c-4 -38 -12
-104 -19 -148 l-11 -80 -102 -3 c-86 -2 -103 -5 -103 -18 0 -33 -60 -562 -72
-629 -6 -38 -10 -78 -9 -89 2 -13 -1 -16 -11 -10 -11 6 -11 5 0 -8 11 -13 9
-45 -7 -180 -11 -89 -25 -214 -31 -275 l-13 -113 -158 1 c-88 0 -159 4 -159 7
0 4 5 39 10 77 5 39 12 104 15 145 3 41 10 102 15 135 5 33 14 119 21 192 12
127 13 131 36 136 15 3 27 -1 30 -9 3 -8 10 -11 15 -8 6 4 5 10 -3 15 -11 7
-10 9 4 9 9 0 17 2 17 4 0 2 3 13 7 23 5 15 2 14 -19 -5 -22 -20 -26 -21 -32
-7 -4 11 3 20 22 28 15 7 28 18 30 25 2 9 -2 11 -10 6 -7 -5 -17 -9 -23 -10
-5 0 -16 -2 -23 -2 -7 -1 -11 -5 -8 -10 2 -4 -2 -18 -10 -32 l-13 -25 -1 26
c0 14 3 28 6 32 4 3 8 37 9 74 2 53 26 297 48 478 2 19 -3 20 -95 17 -53 -2
-98 0 -101 5 -9 15 24 278 36 285 18 11 55 10 63 -3z m1178 -86 c3 -54 11
-199 16 -323 6 -124 15 -313 20 -420 5 -107 14 -296 20 -420 5 -124 13 -255
16 -292 l5 -68 -160 0 -161 0 0 120 0 120 -93 0 -94 0 -22 -103 c-12 -56 -25
-110 -27 -119 -5 -16 -21 -18 -156 -18 l-151 0 6 33 c11 57 265 1009 300 1125
13 40 27 72 32 70 5 -2 8 -10 7 -20 -2 -9 2 -20 9 -24 8 -4 9 -3 5 4 -4 7 -2
12 3 12 6 0 11 -7 11 -16 0 -8 4 -13 8 -10 5 3 8 19 7 36 -1 21 3 30 14 30 12
0 13 2 2 13 -10 10 -15 8 -27 -7 -12 -18 -19 -15 -15 7 0 4 -6 7 -15 7 -12 0
-15 6 -10 23 4 12 12 43 19 70 6 26 15 47 19 47 4 0 5 -6 2 -14 -3 -8 0 -23 6
-33 10 -16 11 -16 6 0 -6 19 10 24 17 5 3 -8 6 -6 6 5 1 9 8 17 16 17 7 0 19
-8 24 -17 10 -17 10 -17 11 0 0 13 8 17 35 17 19 0 35 -5 35 -11 0 -5 -4 -8
-9 -4 -5 3 -13 0 -17 -6 -5 -8 -3 -9 6 -4 9 6 10 2 5 -16 l-7 -24 21 24 c25
28 29 66 6 58 -8 -4 -17 -2 -20 4 -4 5 -10 7 -15 4 -5 -3 -19 -1 -31 6 -19 10
-21 9 -16 -5 10 -25 -11 -29 -24 -4 l-12 22 -9 -24 c-9 -23 -9 -23 -23 -3 -12
17 -11 31 11 113 14 52 27 97 30 102 3 4 83 8 179 8 l173 0 6 -97z m937 87
c38 -7 63 -19 84 -41 30 -30 30 -30 27 -137 -1 -59 -8 -150 -15 -202 l-12 -95
-159 -3 -159 -3 7 77 c4 42 10 90 13 106 l6 29 -79 -3 -79 -3 -42 -380 c-49
-442 -66 -608 -67 -650 l-1 -30 67 -3 c44 -1 69 2 74 10 5 7 13 64 20 128 6
63 15 141 19 173 l7 57 -31 0 c-28 0 -31 3 -31 33 0 17 7 82 15 142 8 61 15
111 15 113 0 1 86 2 190 2 l190 -1 0 -33 c0 -18 -3 -36 -6 -39 -4 -4 -8 -39
-10 -79 -2 -40 -13 -151 -24 -248 -11 -96 -25 -218 -31 -270 -18 -166 -41
-214 -116 -246 -49 -21 -572 -20 -617 1 -72 34 -78 79 -46 355 11 96 29 258
40 360 67 618 82 739 96 778 19 51 66 90 125 101 63 13 466 13 530 1z"/>
<path d="M1125 2850 c-3 -5 -1 -10 4 -10 6 0 11 5 11 10 0 6 -2 10 -4 10 -3 0
-8 -4 -11 -10z"/>
<path d="M1035 2840 c-3 -5 -1 -10 4 -10 6 0 11 5 11 10 0 6 -2 10 -4 10 -3 0
-8 -4 -11 -10z"/>
<path d="M1141 2794 c-7 -8 -11 -17 -9 -20 3 -2 13 5 23 16 10 11 14 20 9 20
-5 -1 -15 -8 -23 -16z"/>
<path d="M1240 2800 c0 -5 5 -10 11 -10 5 0 7 5 4 10 -3 6 -8 10 -11 10 -2 0
-4 -4 -4 -10z"/>
<path d="M1205 2680 c-3 -5 -1 -10 4 -10 6 0 11 5 11 10 0 6 -2 10 -4 10 -3 0
-8 -4 -11 -10z"/>
<path d="M1000 2650 c0 -5 5 -10 11 -10 5 0 7 5 4 10 -3 6 -8 10 -11 10 -2 0
-4 -4 -4 -10z"/>
<path d="M1180 2629 c0 -5 5 -7 10 -4 6 3 10 8 10 11 0 2 -4 4 -10 4 -5 0 -10
-5 -10 -11z"/>
<path d="M1075 2309 c-15 -15 -16 -19 -4 -14 13 5 16 1 14 -19 -2 -14 0 -26 4
-26 4 0 7 18 7 40 0 22 0 40 0 39 -1 0 -10 -9 -21 -20z"/>
<path d="M1220 2230 c0 -5 5 -10 10 -10 6 0 10 5 10 10 0 6 -4 10 -10 10 -5 0
-10 -4 -10 -10z"/>
<path d="M1025 2160 c4 -6 11 -8 16 -5 14 9 11 15 -7 15 -8 0 -12 -5 -9 -10z"/>
<path d="M1021 2088 c-13 -21 -13 -22 2 -10 9 8 22 10 29 6 10 -6 9 -3 -1 9
-17 21 -13 21 -30 -5z"/>
<path d="M1080 2080 c-8 -5 -12 -11 -10 -14 3 -2 14 2 24 10 22 15 10 19 -14
4z"/>
<path d="M1166 1956 c3 -9 13 -16 22 -16 8 0 13 1 11 3 -2 1 -12 9 -22 16 -15
12 -17 12 -11 -3z"/>
<path d="M1044 1918 c-5 -8 -2 -9 9 -5 9 3 19 2 22 -3 4 -6 14 -10 23 -10 12
1 10 5 -8 15 -31 18 -37 18 -46 3z"/>
<path d="M1156 1921 c-4 -7 -5 -15 -2 -18 9 -9 19 4 14 18 -4 11 -6 11 -12 0z"/>
<path d="M1046 1885 c-3 -8 -1 -15 4 -15 6 0 10 7 10 15 0 8 -2 15 -4 15 -2 0
-6 -7 -10 -15z"/>
<path d="M1095 1860 c3 -5 8 -10 11 -10 2 0 4 5 4 10 0 6 -5 10 -11 10 -5 0
-7 -4 -4 -10z"/>
<path d="M1030 1435 c0 -8 7 -15 16 -15 14 0 14 3 4 15 -7 8 -14 15 -16 15 -2
0 -4 -7 -4 -15z"/>
<path d="M1030 1310 c0 -5 7 -10 16 -10 8 0 12 5 9 10 -3 6 -10 10 -16 10 -5
0 -9 -4 -9 -10z"/>
<path d="M1855 2750 c3 -5 8 -10 11 -10 2 0 4 5 4 10 0 6 -5 10 -11 10 -5 0
-7 -4 -4 -10z"/>
<path d="M1890 2627 c0 -10 8 -17 18 -17 9 0 13 4 7 8 -5 4 -13 11 -17 16 -5
5 -8 2 -8 -7z"/>
<path d="M1825 2590 c-4 -6 30 -40 39 -40 2 0 4 11 4 24 0 18 -6 24 -20 23
-11 -1 -21 -4 -23 -7z"/>
<path d="M1755 2510 c-3 -5 1 -10 10 -10 9 0 13 5 10 10 -3 6 -8 10 -10 10 -2
0 -7 -4 -10 -10z"/>
<path d="M1954 2508 c-5 -8 -2 -9 9 -5 10 3 17 2 17 -3 0 -6 5 -10 11 -10 8 0
8 5 -1 15 -15 18 -26 19 -36 3z"/>
<path d="M2100 2440 c0 -5 5 -10 11 -10 5 0 7 5 4 10 -3 6 -8 10 -11 10 -2 0
-4 -4 -4 -10z"/>
<path d="M1811 2087 c-30 -139 -56 -258 -58 -264 -4 -10 11 -13 56 -13 42 0
61 4 62 13 1 24 -3 512 -4 514 -1 1 -26 -112 -56 -250z"/>
<path d="M2050 1734 c0 -8 5 -12 10 -9 6 3 10 10 10 16 0 5 -4 9 -10 9 -5 0
-10 -7 -10 -16z"/>
<path d="M1476 1635 c4 -8 10 -12 15 -9 11 6 2 24 -11 24 -5 0 -7 -7 -4 -15z"/>
<path d="M1500 1465 c0 -8 0 -18 1 -21 0 -4 -5 -10 -12 -15 -8 -4 -10 -12 -5
-16 10 -10 36 25 36 49 0 10 -4 18 -10 18 -5 0 -10 -7 -10 -15z"/>
<path d="M1530 1387 c0 -10 8 -17 18 -17 9 0 13 4 7 8 -5 4 -13 11 -17 16 -5
5 -8 2 -8 -7z"/>
<path d="M1416 1375 c-9 -26 -7 -32 5 -12 6 10 9 21 6 23 -2 3 -7 -2 -11 -11z"/>
<path d="M2348 2145 c-3 -14 -2 -25 2 -25 4 0 12 11 18 25 9 20 9 25 -2 25 -8
0 -16 -11 -18 -25z"/>
<path d="M2967 2134 c-7 -8 3 -34 13 -34 9 0 8 26 -1 35 -3 3 -8 2 -12 -1z"/>
<path d="M2370 2100 c0 -5 5 -10 11 -10 5 0 7 5 4 10 -3 6 -8 10 -11 10 -2 0
-4 -4 -4 -10z"/>
<path d="M3030 2069 c0 -5 5 -7 10 -4 6 3 10 8 10 11 0 2 -4 4 -10 4 -5 0 -10
-5 -10 -11z"/>
<path d="M3060 2059 c0 -5 5 -7 10 -4 6 3 10 8 10 11 0 2 -4 4 -10 4 -5 0 -10
-5 -10 -11z"/>
<path d="M2381 1993 c-7 -8 -10 -17 -7 -20 9 -9 29 13 25 25 -2 6 -10 3 -18
-5z"/>
<path d="M3035 1991 c-3 -5 -2 -12 3 -15 5 -3 9 1 9 9 0 17 -3 19 -12 6z"/>
<path d="M2997 1959 c4 -13 8 -18 11 -10 2 7 -1 18 -6 23 -8 8 -9 4 -5 -13z"/>
<path d="M2955 1790 c-3 -5 -1 -10 4 -10 6 0 11 5 11 10 0 6 -2 10 -4 10 -3 0
-8 -4 -11 -10z"/>
<path d="M2320 1661 c0 -5 5 -13 10 -16 6 -3 10 -2 10 4 0 5 -4 13 -10 16 -5
3 -10 2 -10 -4z"/>
<path d="M2300 1369 c0 -5 5 -7 10 -4 6 3 10 8 10 11 0 2 -4 4 -10 4 -5 0 -10
-5 -10 -11z"/>
</g>
</svg>
